<svg width="138" height="28" viewBox="0 0 138 28" fill="none" xmlns="http://www.w3.org/2000/svg">
<rect width="138" height="28" fill="black"/>
<mask id="path-1-outside-1_257_3" maskUnits="userSpaceOnUse" x="8.38379" y="18.3251" width="27" height="8" fill="black">
<rect fill="white" x="8.38379" y="18.3251" width="27" height="8"/>
<path d="M9.90248 25.4719C9.75839 25.4719 9.63593 25.4223 9.53507 25.323C9.43422 25.2237 9.38379 25.1033 9.38379 24.9614H12.7682C12.8374 24.9614 12.8979 24.9358 12.9497 24.8849C13.0016 24.8367 13.0276 24.777 13.0276 24.7062V24.1915C13.0276 24.1205 13.0016 24.0609 12.9497 24.0128C12.8979 23.9618 12.8374 23.9362 12.7682 23.9362H9.90248C9.75839 23.9362 9.63593 23.8867 9.53507 23.7874C9.43422 23.6852 9.38379 23.5647 9.38379 23.4258V22.911H9.90248V23.1663C9.90248 23.2372 9.92841 23.2982 9.98029 23.3493C10.0293 23.4002 10.0898 23.4258 10.1618 23.4258H13.0276C13.1716 23.4258 13.2941 23.4755 13.395 23.5746C13.4958 23.6739 13.5462 23.7943 13.5462 23.9362V24.9614C13.5462 25.1033 13.4958 25.2237 13.395 25.323C13.2941 25.4223 13.1716 25.4719 13.0276 25.4719H9.90248ZM9.38379 22.4007C9.38379 22.2588 9.43422 22.1384 9.53507 22.0391C9.63593 21.937 9.75839 21.8859 9.90248 21.8859H13.0276C13.1716 21.8859 13.2941 21.937 13.395 22.0391C13.4958 22.1384 13.5462 22.2588 13.5462 22.4007H9.38379ZM14.588 25.4719C14.4439 25.4719 14.3214 25.4223 14.2205 25.323C14.1197 25.2237 14.0693 25.1033 14.0693 24.9614V19.3251H14.588V21.116C14.588 21.1869 14.6139 21.2478 14.6658 21.2989C14.7147 21.35 14.7753 21.3755 14.8473 21.3755H15.3703V21.8859H14.8473C14.7753 21.8859 14.7147 21.9114 14.6658 21.9626C14.6139 22.0135 14.588 22.0731 14.588 22.141V24.7062C14.588 24.777 14.6139 24.8367 14.6658 24.8849C14.7147 24.9358 14.7753 24.9614 14.8473 24.9614H15.6296C15.6296 25.1033 15.5792 25.2237 15.4784 25.323C15.3746 25.4223 15.2507 25.4719 15.1066 25.4719H14.588ZM16.6713 25.4719C16.5273 25.4719 16.4048 25.4223 16.3039 25.323C16.2031 25.2237 16.1527 25.1033 16.1527 24.9614V22.4007C16.1527 22.2588 16.2031 22.1384 16.3039 22.0391C16.4048 21.937 16.5273 21.8859 16.6713 21.8859V24.7062C16.6713 24.777 16.6973 24.8367 16.7492 24.8849C16.7982 24.9358 16.8586 24.9614 16.9306 24.9614H19.0141C19.0861 24.9614 19.1481 24.9358 19.1999 24.8849C19.2489 24.8367 19.2734 24.777 19.2734 24.7062V21.8859C19.4175 21.8859 19.5399 21.937 19.6408 22.0391C19.7446 22.1384 19.7964 22.2588 19.7964 22.4007V24.9614C19.7964 25.1033 19.7446 25.2237 19.6408 25.323C19.5399 25.4223 19.4175 25.4719 19.2734 25.4719H16.6713ZM23.7038 24.9614C23.773 24.9614 23.8335 24.9358 23.8854 24.8849C23.9373 24.8367 23.9632 24.777 23.9632 24.7062V22.6558C23.9632 22.585 23.9373 22.524 23.8854 22.4729C23.8335 22.4246 23.773 22.4007 23.7038 22.4007H21.0975C21.0254 22.4007 20.9649 22.4246 20.9159 22.4729C20.864 22.524 20.8381 22.585 20.8381 22.6558V24.7062C20.8381 24.777 20.864 24.8367 20.9159 24.8849C20.9649 24.9358 21.0254 24.9614 21.0975 24.9614H23.7038ZM20.8381 25.4719C20.694 25.4719 20.5716 25.4223 20.4707 25.323C20.3699 25.2237 20.3194 25.1033 20.3194 24.9614V22.4007C20.3194 22.2588 20.3699 22.1384 20.4707 22.0391C20.5716 21.937 20.694 21.8859 20.8381 21.8859H23.7038C23.773 21.8859 23.8335 21.8618 23.8854 21.8136C23.9373 21.7626 23.9632 21.7016 23.9632 21.6307V19.3251H24.4819V24.9614C24.4819 25.1033 24.4314 25.2237 24.3306 25.323C24.2297 25.4223 24.1073 25.4719 23.9632 25.4719H20.8381ZM25.5235 25.4719C25.3795 25.4719 25.257 25.4223 25.1562 25.323C25.0553 25.2237 25.0049 25.1033 25.0049 24.9614V21.8859H25.5235V25.4719ZM25.0049 20.8608V19.8356H25.5235V20.8608H25.0049ZM29.4268 24.9614C29.4958 24.9614 29.5565 24.9358 29.6082 24.8849C29.6601 24.8367 29.6861 24.777 29.6861 24.7062V22.6558C29.6861 22.585 29.6601 22.524 29.6082 22.4729C29.5565 22.4246 29.4958 22.4007 29.4268 22.4007H26.8203C26.7483 22.4007 26.6877 22.4246 26.6388 22.4729C26.5869 22.524 26.561 22.585 26.561 22.6558V24.7062C26.561 24.777 26.5869 24.8367 26.6388 24.8849C26.6877 24.9358 26.7483 24.9614 26.8203 24.9614H29.4268ZM26.561 25.4719C26.4169 25.4719 26.2944 25.4223 26.1935 25.323C26.0927 25.2237 26.0423 25.1033 26.0423 24.9614V22.4007C26.0423 22.2588 26.0927 22.1384 26.1935 22.0391C26.2944 21.937 26.4169 21.8859 26.561 21.8859H29.6861C29.83 21.8859 29.9526 21.937 30.0535 22.0391C30.1542 22.1384 30.2048 22.2588 30.2048 22.4007V24.9614C30.2048 25.1033 30.1542 25.2237 30.0535 25.323C29.9526 25.4223 29.83 25.4719 29.6861 25.4719H26.561ZM31.2464 25.4719C31.1025 25.4719 30.9799 25.4223 30.879 25.323C30.7782 25.2237 30.7277 25.1033 30.7277 24.9614H34.1122C34.1812 24.9614 34.2418 24.9358 34.2938 24.8849C34.3455 24.8367 34.3714 24.777 34.3714 24.7062V24.1915C34.3714 24.1205 34.3455 24.0609 34.2938 24.0128C34.2418 23.9618 34.1812 23.9362 34.1122 23.9362H31.2464C31.1025 23.9362 30.9799 23.8867 30.879 23.7874C30.7782 23.6852 30.7277 23.5647 30.7277 23.4258V22.4007C30.7277 22.2588 30.7782 22.1384 30.879 22.0391C30.9799 21.937 31.1025 21.8859 31.2464 21.8859H34.3714C34.5157 21.8859 34.638 21.937 34.7389 22.0391C34.8398 22.1384 34.8902 22.2588 34.8902 22.4007H31.5057C31.4337 22.4007 31.3733 22.4246 31.3243 22.4729C31.2724 22.524 31.2464 22.585 31.2464 22.6558V23.1663C31.2464 23.2372 31.2724 23.2982 31.3243 23.3493C31.3733 23.4002 31.4337 23.4258 31.5057 23.4258H34.3714C34.5157 23.4258 34.638 23.4755 34.7389 23.5746C34.8398 23.6739 34.8902 23.7943 34.8902 23.9362V24.9614C34.8902 25.1033 34.8398 25.2237 34.7389 25.323C34.638 25.4223 34.5157 25.4719 34.3714 25.4719H31.2464Z"/>
</mask>
<path d="M9.90248 25.4719C9.75839 25.4719 9.63593 25.4223 9.53507 25.323C9.43422 25.2237 9.38379 25.1033 9.38379 24.9614H12.7682C12.8374 24.9614 12.8979 24.9358 12.9497 24.8849C13.0016 24.8367 13.0276 24.777 13.0276 24.7062V24.1915C13.0276 24.1205 13.0016 24.0609 12.9497 24.0128C12.8979 23.9618 12.8374 23.9362 12.7682 23.9362H9.90248C9.75839 23.9362 9.63593 23.8867 9.53507 23.7874C9.43422 23.6852 9.38379 23.5647 9.38379 23.4258V22.911H9.90248V23.1663C9.90248 23.2372 9.92841 23.2982 9.98029 23.3493C10.0293 23.4002 10.0898 23.4258 10.1618 23.4258H13.0276C13.1716 23.4258 13.2941 23.4755 13.395 23.5746C13.4958 23.6739 13.5462 23.7943 13.5462 23.9362V24.9614C13.5462 25.1033 13.4958 25.2237 13.395 25.323C13.2941 25.4223 13.1716 25.4719 13.0276 25.4719H9.90248ZM9.38379 22.4007C9.38379 22.2588 9.43422 22.1384 9.53507 22.0391C9.63593 21.937 9.75839 21.8859 9.90248 21.8859H13.0276C13.1716 21.8859 13.2941 21.937 13.395 22.0391C13.4958 22.1384 13.5462 22.2588 13.5462 22.4007H9.38379ZM14.588 25.4719C14.4439 25.4719 14.3214 25.4223 14.2205 25.323C14.1197 25.2237 14.0693 25.1033 14.0693 24.9614V19.3251H14.588V21.116C14.588 21.1869 14.6139 21.2478 14.6658 21.2989C14.7147 21.35 14.7753 21.3755 14.8473 21.3755H15.3703V21.8859H14.8473C14.7753 21.8859 14.7147 21.9114 14.6658 21.9626C14.6139 22.0135 14.588 22.0731 14.588 22.141V24.7062C14.588 24.777 14.6139 24.8367 14.6658 24.8849C14.7147 24.9358 14.7753 24.9614 14.8473 24.9614H15.6296C15.6296 25.1033 15.5792 25.2237 15.4784 25.323C15.3746 25.4223 15.2507 25.4719 15.1066 25.4719H14.588ZM16.6713 25.4719C16.5273 25.4719 16.4048 25.4223 16.3039 25.323C16.2031 25.2237 16.1527 25.1033 16.1527 24.9614V22.4007C16.1527 22.2588 16.2031 22.1384 16.3039 22.0391C16.4048 21.937 16.5273 21.8859 16.6713 21.8859V24.7062C16.6713 24.777 16.6973 24.8367 16.7492 24.8849C16.7982 24.9358 16.8586 24.9614 16.9306 24.9614H19.0141C19.0861 24.9614 19.1481 24.9358 19.1999 24.8849C19.2489 24.8367 19.2734 24.777 19.2734 24.7062V21.8859C19.4175 21.8859 19.5399 21.937 19.6408 22.0391C19.7446 22.1384 19.7964 22.2588 19.7964 22.4007V24.9614C19.7964 25.1033 19.7446 25.2237 19.6408 25.323C19.5399 25.4223 19.4175 25.4719 19.2734 25.4719H16.6713ZM23.7038 24.9614C23.773 24.9614 23.8335 24.9358 23.8854 24.8849C23.9373 24.8367 23.9632 24.777 23.9632 24.7062V22.6558C23.9632 22.585 23.9373 22.524 23.8854 22.4729C23.8335 22.4246 23.773 22.4007 23.7038 22.4007H21.0975C21.0254 22.4007 20.9649 22.4246 20.9159 22.4729C20.864 22.524 20.8381 22.585 20.8381 22.6558V24.7062C20.8381 24.777 20.864 24.8367 20.9159 24.8849C20.9649 24.9358 21.0254 24.9614 21.0975 24.9614H23.7038ZM20.8381 25.4719C20.694 25.4719 20.5716 25.4223 20.4707 25.323C20.3699 25.2237 20.3194 25.1033 20.3194 24.9614V22.4007C20.3194 22.2588 20.3699 22.1384 20.4707 22.0391C20.5716 21.937 20.694 21.8859 20.8381 21.8859H23.7038C23.773 21.8859 23.8335 21.8618 23.8854 21.8136C23.9373 21.7626 23.9632 21.7016 23.9632 21.6307V19.3251H24.4819V24.9614C24.4819 25.1033 24.4314 25.2237 24.3306 25.323C24.2297 25.4223 24.1073 25.4719 23.9632 25.4719H20.8381ZM25.5235 25.4719C25.3795 25.4719 25.257 25.4223 25.1562 25.323C25.0553 25.2237 25.0049 25.1033 25.0049 24.9614V21.8859H25.5235V25.4719ZM25.0049 20.8608V19.8356H25.5235V20.8608H25.0049ZM29.4268 24.9614C29.4958 24.9614 29.5565 24.9358 29.6082 24.8849C29.6601 24.8367 29.6861 24.777 29.6861 24.7062V22.6558C29.6861 22.585 29.6601 22.524 29.6082 22.4729C29.5565 22.4246 29.4958 22.4007 29.4268 22.4007H26.8203C26.7483 22.4007 26.6877 22.4246 26.6388 22.4729C26.5869 22.524 26.561 22.585 26.561 22.6558V24.7062C26.561 24.777 26.5869 24.8367 26.6388 24.8849C26.6877 24.9358 26.7483 24.9614 26.8203 24.9614H29.4268ZM26.561 25.4719C26.4169 25.4719 26.2944 25.4223 26.1935 25.323C26.0927 25.2237 26.0423 25.1033 26.0423 24.9614V22.4007C26.0423 22.2588 26.0927 22.1384 26.1935 22.0391C26.2944 21.937 26.4169 21.8859 26.561 21.8859H29.6861C29.83 21.8859 29.9526 21.937 30.0535 22.0391C30.1542 22.1384 30.2048 22.2588 30.2048 22.4007V24.9614C30.2048 25.1033 30.1542 25.2237 30.0535 25.323C29.9526 25.4223 29.83 25.4719 29.6861 25.4719H26.561ZM31.2464 25.4719C31.1025 25.4719 30.9799 25.4223 30.879 25.323C30.7782 25.2237 30.7277 25.1033 30.7277 24.9614H34.1122C34.1812 24.9614 34.2418 24.9358 34.2938 24.8849C34.3455 24.8367 34.3714 24.777 34.3714 24.7062V24.1915C34.3714 24.1205 34.3455 24.0609 34.2938 24.0128C34.2418 23.9618 34.1812 23.9362 34.1122 23.9362H31.2464C31.1025 23.9362 30.9799 23.8867 30.879 23.7874C30.7782 23.6852 30.7277 23.5647 30.7277 23.4258V22.4007C30.7277 22.2588 30.7782 22.1384 30.879 22.0391C30.9799 21.937 31.1025 21.8859 31.2464 21.8859H34.3714C34.5157 21.8859 34.638 21.937 34.7389 22.0391C34.8398 22.1384 34.8902 22.2588 34.8902 22.4007H31.5057C31.4337 22.4007 31.3733 22.4246 31.3243 22.4729C31.2724 22.524 31.2464 22.585 31.2464 22.6558V23.1663C31.2464 23.2372 31.2724 23.2982 31.3243 23.3493C31.3733 23.4002 31.4337 23.4258 31.5057 23.4258H34.3714C34.5157 23.4258 34.638 23.4755 34.7389 23.5746C34.8398 23.6739 34.8902 23.7943 34.8902 23.9362V24.9614C34.8902 25.1033 34.8398 25.2237 34.7389 25.323C34.638 25.4223 34.5157 25.4719 34.3714 25.4719H31.2464Z" fill="white"/>
<path d="M9.90248 25.4719C9.75839 25.4719 9.63593 25.4223 9.53507 25.323C9.43422 25.2237 9.38379 25.1033 9.38379 24.9614H12.7682C12.8374 24.9614 12.8979 24.9358 12.9497 24.8849C13.0016 24.8367 13.0276 24.777 13.0276 24.7062V24.1915C13.0276 24.1205 13.0016 24.0609 12.9497 24.0128C12.8979 23.9618 12.8374 23.9362 12.7682 23.9362H9.90248C9.75839 23.9362 9.63593 23.8867 9.53507 23.7874C9.43422 23.6852 9.38379 23.5647 9.38379 23.4258V22.911H9.90248V23.1663C9.90248 23.2372 9.92841 23.2982 9.98029 23.3493C10.0293 23.4002 10.0898 23.4258 10.1618 23.4258H13.0276C13.1716 23.4258 13.2941 23.4755 13.395 23.5746C13.4958 23.6739 13.5462 23.7943 13.5462 23.9362V24.9614C13.5462 25.1033 13.4958 25.2237 13.395 25.323C13.2941 25.4223 13.1716 25.4719 13.0276 25.4719H9.90248ZM9.38379 22.4007C9.38379 22.2588 9.43422 22.1384 9.53507 22.0391C9.63593 21.937 9.75839 21.8859 9.90248 21.8859H13.0276C13.1716 21.8859 13.2941 21.937 13.395 22.0391C13.4958 22.1384 13.5462 22.2588 13.5462 22.4007H9.38379ZM14.588 25.4719C14.4439 25.4719 14.3214 25.4223 14.2205 25.323C14.1197 25.2237 14.0693 25.1033 14.0693 24.9614V19.3251H14.588V21.116C14.588 21.1869 14.6139 21.2478 14.6658 21.2989C14.7147 21.35 14.7753 21.3755 14.8473 21.3755H15.3703V21.8859H14.8473C14.7753 21.8859 14.7147 21.9114 14.6658 21.9626C14.6139 22.0135 14.588 22.0731 14.588 22.141V24.7062C14.588 24.777 14.6139 24.8367 14.6658 24.8849C14.7147 24.9358 14.7753 24.9614 14.8473 24.9614H15.6296C15.6296 25.1033 15.5792 25.2237 15.4784 25.323C15.3746 25.4223 15.2507 25.4719 15.1066 25.4719H14.588ZM16.6713 25.4719C16.5273 25.4719 16.4048 25.4223 16.3039 25.323C16.2031 25.2237 16.1527 25.1033 16.1527 24.9614V22.4007C16.1527 22.2588 16.2031 22.1384 16.3039 22.0391C16.4048 21.937 16.5273 21.8859 16.6713 21.8859V24.7062C16.6713 24.777 16.6973 24.8367 16.7492 24.8849C16.7982 24.9358 16.8586 24.9614 16.9306 24.9614H19.0141C19.0861 24.9614 19.1481 24.9358 19.1999 24.8849C19.2489 24.8367 19.2734 24.777 19.2734 24.7062V21.8859C19.4175 21.8859 19.5399 21.937 19.6408 22.0391C19.7446 22.1384 19.7964 22.2588 19.7964 22.4007V24.9614C19.7964 25.1033 19.7446 25.2237 19.6408 25.323C19.5399 25.4223 19.4175 25.4719 19.2734 25.4719H16.6713ZM23.7038 24.9614C23.773 24.9614 23.8335 24.9358 23.8854 24.8849C23.9373 24.8367 23.9632 24.777 23.9632 24.7062V22.6558C23.9632 22.585 23.9373 22.524 23.8854 22.4729C23.8335 22.4246 23.773 22.4007 23.7038 22.4007H21.0975C21.0254 22.4007 20.9649 22.4246 20.9159 22.4729C20.864 22.524 20.8381 22.585 20.8381 22.6558V24.7062C20.8381 24.777 20.864 24.8367 20.9159 24.8849C20.9649 24.9358 21.0254 24.9614 21.0975 24.9614H23.7038ZM20.8381 25.4719C20.694 25.4719 20.5716 25.4223 20.4707 25.323C20.3699 25.2237 20.3194 25.1033 20.3194 24.9614V22.4007C20.3194 22.2588 20.3699 22.1384 20.4707 22.0391C20.5716 21.937 20.694 21.8859 20.8381 21.8859H23.7038C23.773 21.8859 23.8335 21.8618 23.8854 21.8136C23.9373 21.7626 23.9632 21.7016 23.9632 21.6307V19.3251H24.4819V24.9614C24.4819 25.1033 24.4314 25.2237 24.3306 25.323C24.2297 25.4223 24.1073 25.4719 23.9632 25.4719H20.8381ZM25.5235 25.4719C25.3795 25.4719 25.257 25.4223 25.1562 25.323C25.0553 25.2237 25.0049 25.1033 25.0049 24.9614V21.8859H25.5235V25.4719ZM25.0049 20.8608V19.8356H25.5235V20.8608H25.0049ZM29.4268 24.9614C29.4958 24.9614 29.5565 24.9358 29.6082 24.8849C29.6601 24.8367 29.6861 24.777 29.6861 24.7062V22.6558C29.6861 22.585 29.6601 22.524 29.6082 22.4729C29.5565 22.4246 29.4958 22.4007 29.4268 22.4007H26.8203C26.7483 22.4007 26.6877 22.4246 26.6388 22.4729C26.5869 22.524 26.561 22.585 26.561 22.6558V24.7062C26.561 24.777 26.5869 24.8367 26.6388 24.8849C26.6877 24.9358 26.7483 24.9614 26.8203 24.9614H29.4268ZM26.561 25.4719C26.4169 25.4719 26.2944 25.4223 26.1935 25.323C26.0927 25.2237 26.0423 25.1033 26.0423 24.9614V22.4007C26.0423 22.2588 26.0927 22.1384 26.1935 22.0391C26.2944 21.937 26.4169 21.8859 26.561 21.8859H29.6861C29.83 21.8859 29.9526 21.937 30.0535 22.0391C30.1542 22.1384 30.2048 22.2588 30.2048 22.4007V24.9614C30.2048 25.1033 30.1542 25.2237 30.0535 25.323C29.9526 25.4223 29.83 25.4719 29.6861 25.4719H26.561ZM31.2464 25.4719C31.1025 25.4719 30.9799 25.4223 30.879 25.323C30.7782 25.2237 30.7277 25.1033 30.7277 24.9614H34.1122C34.1812 24.9614 34.2418 24.9358 34.2938 24.8849C34.3455 24.8367 34.3714 24.777 34.3714 24.7062V24.1915C34.3714 24.1205 34.3455 24.0609 34.2938 24.0128C34.2418 23.9618 34.1812 23.9362 34.1122 23.9362H31.2464C31.1025 23.9362 30.9799 23.8867 30.879 23.7874C30.7782 23.6852 30.7277 23.5647 30.7277 23.4258V22.4007C30.7277 22.2588 30.7782 22.1384 30.879 22.0391C30.9799 21.937 31.1025 21.8859 31.2464 21.8859H34.3714C34.5157 21.8859 34.638 21.937 34.7389 22.0391C34.8398 22.1384 34.8902 22.2588 34.8902 22.4007H31.5057C31.4337 22.4007 31.3733 22.4246 31.3243 22.4729C31.2724 22.524 31.2464 22.585 31.2464 22.6558V23.1663C31.2464 23.2372 31.2724 23.2982 31.3243 23.3493C31.3733 23.4002 31.4337 23.4258 31.5057 23.4258H34.3714C34.5157 23.4258 34.638 23.4755 34.7389 23.5746C34.8398 23.6739 34.8902 23.7943 34.8902 23.9362V24.9614C34.8902 25.1033 34.8398 25.2237 34.7389 25.323C34.638 25.4223 34.5157 25.4719 34.3714 25.4719H31.2464Z" stroke="white" stroke-width="0.2" mask="url(#path-1-outside-1_257_3)"/>
<path d="M10.8791 8.29623L10.8791 8.2962C10.9087 7.65474 10.9014 7.13464 10.8716 6.77405C10.8567 6.5941 10.8361 6.45199 10.811 6.35384C10.7986 6.30517 10.7844 6.2643 10.7675 6.23449C10.7529 6.20853 10.7257 6.1726 10.6813 6.1726C10.6391 6.1726 10.6095 6.20256 10.5905 6.22918C10.5699 6.25795 10.5511 6.29769 10.5333 6.34501C10.4973 6.44027 10.4607 6.57837 10.4219 6.75247C10.3495 7.0774 10.2677 7.53618 10.168 8.09553C10.1607 8.13661 10.1533 8.17823 10.1458 8.22038C9.9258 9.45371 9.61919 11.1458 9.13903 12.9849L9.13899 12.985C8.99134 13.5594 8.83249 14.1102 8.67984 14.6395C8.58792 14.9583 8.49824 15.2692 8.41462 15.5728C8.17786 16.3644 7.98511 17.0995 7.86635 17.7346C7.74028 18.3622 7.68071 18.8791 7.66765 19.2419C7.66113 19.4231 7.66613 19.5676 7.68085 19.6689C7.68815 19.7192 7.69824 19.7618 7.71207 19.7936C7.72412 19.8213 7.74732 19.8598 7.7911 19.8651L7.79174 19.8652C7.83348 19.8697 7.86612 19.8435 7.88795 19.8192C7.91142 19.793 7.9343 19.7559 7.95716 19.7113C8.00317 19.6216 8.05494 19.4898 8.11415 19.3234C8.18028 19.1375 8.25701 18.9044 8.34655 18.6324C8.41731 18.4174 8.49607 18.1781 8.58391 17.9187C8.66817 17.6787 8.75711 17.4203 8.85185 17.145C8.99045 16.7424 9.14148 16.3036 9.30848 15.8335L9.30849 15.8335L9.30876 15.8327L9.31428 15.8163C9.57898 15.0297 9.87296 14.156 10.1085 13.2112C10.5975 11.3235 10.8198 9.56527 10.8791 8.29623Z" fill="white" stroke="white" stroke-width="0.1"/>
<path d="M11.3029 11.2381L11.3028 11.2381L11.3036 11.2394C11.5258 11.6141 11.7495 11.948 11.9746 12.1963C12.1905 12.4497 12.3892 12.6359 12.5466 12.7503C12.6251 12.8073 12.6955 12.848 12.754 12.8696C12.7833 12.8804 12.8118 12.8872 12.8383 12.8878C12.8648 12.8883 12.8927 12.8826 12.9157 12.8642C12.963 12.8276 12.9695 12.7662 12.9636 12.7091C12.9573 12.6491 12.9355 12.5745 12.9034 12.4887C12.8391 12.3166 12.7279 12.0849 12.5933 11.807C12.5853 11.7904 12.5771 11.7737 12.5689 11.7567C12.3014 11.2045 11.9461 10.471 11.6601 9.62994L11.66 9.62958C11.3592 8.76618 11.1898 7.95223 11.0642 7.3487L11.0628 7.3416C11.0001 7.04045 10.9478 6.78983 10.8953 6.6138C10.8692 6.52606 10.8419 6.45336 10.8116 6.40125C10.7831 6.35234 10.7431 6.30638 10.6854 6.30231C10.6266 6.29604 10.5802 6.33974 10.5479 6.38636C10.5129 6.43701 10.4805 6.51028 10.4521 6.60155C10.395 6.78487 10.3502 7.05189 10.3353 7.38548C10.3203 7.71948 10.3353 8.11088 10.3948 8.54523C10.4544 8.97961 10.5586 9.45746 10.7225 9.93554C10.8862 10.4133 11.0945 10.8619 11.3029 11.2381Z" fill="white" stroke="white" stroke-width="0.1"/>
<path d="M15.2912 3.7485L15.2912 3.74849L12.9113 7.91844C12.7034 8.53938 12.555 9.14581 12.451 9.70883C12.3472 10.2717 12.2877 10.777 12.2581 11.2104L12.2581 11.2104L12.258 11.2112C12.2357 11.6371 12.243 11.9854 12.2712 12.23C12.2852 12.352 12.3047 12.4506 12.3294 12.5209C12.3417 12.5559 12.3561 12.5866 12.3738 12.6099C12.3911 12.6329 12.416 12.6546 12.4498 12.6587L12.4498 12.6588L12.453 12.659C12.487 12.661 12.5155 12.645 12.5374 12.6252C12.5593 12.6056 12.5791 12.5782 12.5975 12.5465C12.6345 12.483 12.6722 12.3912 12.7114 12.2769C12.79 12.0478 12.8787 11.7168 12.9831 11.3126C13.0095 11.2104 13.0369 11.1035 13.0654 10.9922C13.2629 10.2215 13.5138 9.24207 13.8494 8.19405C14.1791 7.16443 14.5359 6.23549 14.8187 5.49907C14.8654 5.3776 14.91 5.26138 14.9522 5.15081C15.1009 4.761 15.2195 4.43993 15.287 4.20794C15.3206 4.09233 15.3424 3.99585 15.3482 3.92276C15.351 3.88635 15.3502 3.85256 15.3431 3.82385C15.3359 3.79489 15.3208 3.76577 15.2912 3.7485Z" fill="white" stroke="white" stroke-width="0.1"/>
<path d="M14.8464 14.5266L14.8907 14.5228L15.8044 18.8295C15.8044 18.8295 15.8044 18.8295 15.8044 18.8295C15.8489 18.8241 15.8712 18.785 15.8824 18.7575C15.8951 18.726 15.9041 18.6839 15.9106 18.6343C15.9238 18.5343 15.9288 18.3908 15.9279 18.2097C15.926 17.8468 15.9001 17.3242 15.8631 16.6773C15.8537 16.4758 15.8428 16.2629 15.8314 16.0394C15.8068 15.5599 15.7798 15.0317 15.7596 14.463C15.7301 13.6288 15.7005 12.7086 15.6857 11.7453C15.675 11.0488 15.6682 10.3745 15.6617 9.73687C15.6503 8.61122 15.64 7.59977 15.6117 6.78217C15.5969 6.14162 15.5673 5.6222 15.5264 5.26228C15.506 5.08264 15.4825 4.94078 15.4561 4.84292C15.443 4.79439 15.4284 4.75366 15.4114 4.724C15.3967 4.69821 15.3695 4.66234 15.3251 4.66234C15.2825 4.66234 15.2542 4.6956 15.2377 4.72076C15.2187 4.74957 15.2012 4.7894 15.1845 4.83725C15.1509 4.93363 15.1171 5.07362 15.0837 5.2515C15.0167 5.6079 14.95 6.12386 14.8908 6.76463C14.7723 8.03191 14.6687 9.80294 14.6983 11.7613C14.7131 12.7409 14.7724 13.6771 14.8464 14.5266Z" fill="white" stroke="white" stroke-width="0.1"/>
<path d="M19.0005 6.45441L19.0005 6.45437C18.7527 6.57723 18.5416 6.69148 18.3644 6.78743C18.2718 6.83753 18.1885 6.88265 18.1139 6.9214C18.0067 6.97713 17.9167 7.0202 17.8459 7.04362C17.8106 7.05531 17.7772 7.0631 17.7472 7.06405C17.7172 7.065 17.6854 7.05919 17.6598 7.03794M19.0005 6.45441L26.4958 3.20384C26.487 3.16946 26.4603 3.14813 26.4343 3.13516C26.4079 3.12198 26.3745 3.11334 26.3371 3.10765C26.262 3.09618 26.1583 3.09484 26.0314 3.10256C25.7769 3.11804 25.4188 3.17069 24.9859 3.26084C24.1197 3.44123 22.9486 3.77287 21.6963 4.26292L21.6962 4.26295C21.0736 4.50802 20.4956 4.76747 19.9622 5.02686C19.427 5.28707 18.9657 5.57646 18.6079 5.85194C18.2429 6.12724 17.9808 6.38902 17.8205 6.59257C17.7406 6.69404 17.6846 6.78282 17.6542 6.85287C17.6392 6.88759 17.6291 6.92073 17.6271 6.95016C17.6252 6.97891 17.6308 7.01424 17.6598 7.03794M19.0005 6.45441L19.0022 6.45349M19.0005 6.45441L19.0022 6.45349M17.6598 7.03794C17.6599 7.03801 17.6599 7.03808 17.66 7.03815L17.6915 6.99931L17.6595 7.03772C17.6596 7.03779 17.6597 7.03786 17.6598 7.03794ZM19.0022 6.45349C19.3695 6.25341 19.8259 6.05291 20.3435 5.83719C20.6299 5.71781 20.9373 5.59908 21.2579 5.47527C21.5174 5.37503 21.7856 5.27144 22.0583 5.16147L19.0022 6.45349Z" fill="white" stroke="white" stroke-width="0.1"/>
<path d="M23.1631 18.1968C23.2074 18.1986 23.2372 18.1643 23.2544 18.1384C23.2742 18.1085 23.2926 18.0667 23.3104 18.0163C23.3463 17.9149 23.3837 17.7667 23.4238 17.5785C23.504 17.2017 23.5966 16.6561 23.7094 15.9849C23.717 15.9391 23.7248 15.8928 23.7327 15.8458C23.956 14.5153 24.257 12.7219 24.6924 10.7643L24.6925 10.7638C25.1046 8.81545 25.5713 7.06293 25.9189 5.7577C25.9328 5.70522 25.9466 5.65347 25.9602 5.60246C26.1357 4.94298 26.2775 4.40597 26.3605 4.02844C26.4019 3.83998 26.4293 3.68909 26.4385 3.58176C26.4431 3.52851 26.4436 3.48276 26.4378 3.44737C26.4328 3.41677 26.4196 3.37263 26.3774 3.35663C26.3553 3.34785 26.3339 3.35164 26.3178 3.35806C26.3017 3.36446 26.2869 3.37495 26.2736 3.38641C26.2469 3.40945 26.2176 3.44441 26.186 3.48819C26.1225 3.57644 26.0436 3.71012 25.9526 3.88344C25.7704 4.23064 25.5368 4.74291 25.2776 5.38387L25.2775 5.38415C25.0256 6.01816 24.7441 6.79624 24.4774 7.67515L24.5252 7.68967L24.4774 7.67515C24.2109 8.55342 23.9443 9.51852 23.7221 10.5559C23.4999 11.5788 23.337 12.5726 23.2185 13.48C23.1 14.3871 23.026 15.2084 22.9963 15.9005C22.9592 16.592 22.9592 17.155 22.9834 17.5458C22.9954 17.7409 23.0137 17.8949 23.0369 18.0011C23.0484 18.0538 23.0618 18.0977 23.0778 18.1295C23.0857 18.1454 23.0957 18.1609 23.1085 18.1731C23.1215 18.1854 23.1399 18.1964 23.1631 18.1968ZM23.1631 18.1968C23.1626 18.1968 23.1622 18.1968 23.1617 18.1968L23.1646 18.1468V18.1968C23.1641 18.1968 23.1636 18.1968 23.1631 18.1968Z" fill="white" stroke="white" stroke-width="0.1"/>
<path d="M30.4175 9.70706L30.4175 9.70684L29.4063 15.6298L29.4003 15.6794C29.4004 15.6794 29.4005 15.6794 29.4006 15.6794C29.4403 15.6841 29.471 15.6597 29.4908 15.6376C29.512 15.6138 29.5319 15.5804 29.551 15.5407C29.5893 15.4606 29.6296 15.3434 29.6712 15.1946C29.7547 14.8964 29.8456 14.4629 29.9363 13.9264C30.1178 12.8529 30.2991 11.3626 30.4175 9.70706Z" fill="white" stroke="white" stroke-width="0.1"/>
<path d="M35.6177 4.02181C35.5983 4.00299 35.5789 3.98262 35.5591 3.96173C35.5182 3.91876 35.4751 3.87353 35.4255 3.83482C35.2923 3.70536 35.1592 3.60468 34.9964 3.51838C34.6858 3.34576 34.3604 3.23069 34.0351 3.15878M35.6177 4.02181L35.5791 4.05358C35.5797 4.0543 35.5803 4.05501 35.5809 4.05572M35.6177 4.02181L35.5829 4.05768C35.5822 4.05703 35.5815 4.05638 35.5809 4.05572M35.6177 4.02181C35.6318 4.03889 35.6458 4.05516 35.6596 4.07119C35.7041 4.12268 35.7465 4.17176 35.7804 4.23758C36.1945 4.84169 36.3571 5.69037 36.2242 6.539C36.091 7.38769 35.6621 8.23632 35.0259 8.96994C34.39 9.71789 33.5618 10.3364 32.6152 10.8111C31.6538 11.3001 30.648 11.6166 29.6424 11.8755C28.6366 12.1344 27.6457 12.3358 26.6991 12.5228L17.1433 15.2618M35.5809 4.05572C35.5614 4.03677 35.5415 4.01582 35.5218 3.99516C35.5115 3.9843 35.5012 3.97352 35.4912 3.96315C35.4603 3.93134 35.4289 3.9009 35.3947 3.87425L35.3904 3.87088L35.3906 3.87067C35.2604 3.74409 35.131 3.64636 34.973 3.56255L34.9721 3.56209C34.6664 3.39221 34.3459 3.27875 34.0249 3.20773M35.5809 4.05572C35.5959 4.07398 35.6104 4.09075 35.6242 4.10681C35.6677 4.15713 35.705 4.20039 35.7359 4.26046L35.7355 4.26065L35.7391 4.26585C36.1447 4.85759 36.3061 5.69283 36.1748 6.53125C36.0433 7.36901 35.6194 8.20925 34.9881 8.93718L34.9878 8.93755C34.3569 9.67959 33.5344 10.2942 32.5928 10.7664L32.5925 10.7665C31.6358 11.2532 30.634 11.5685 29.63 11.827C28.6256 12.0856 27.636 12.2867 26.6894 12.4737C24.7965 12.8476 23.0647 13.1931 21.6434 13.5531C20.2069 13.9131 19.0805 14.2878 18.3087 14.6053L18.3087 14.6053L18.3073 14.606C18.1149 14.6923 17.9533 14.7638 17.8067 14.8208L17.8067 14.8208L17.805 14.8215L17.803 14.8224C17.6729 14.8785 17.5372 14.9371 17.4447 14.9967C17.3489 15.0469 17.2733 15.0909 17.2228 15.1269C17.1977 15.1446 17.1762 15.1623 17.1616 15.1793C17.1544 15.1877 17.1466 15.1985 17.1419 15.2114C17.1371 15.2245 17.1346 15.243 17.1433 15.2618M34.0249 3.20773C34.0251 3.20778 34.0254 3.20782 34.0256 3.20786L34.0351 3.15878M34.0249 3.20773C34.0247 3.20769 34.0245 3.20764 34.0243 3.2076L34.0351 3.15878M34.0249 3.20773C33.3675 3.07995 32.7381 3.12237 32.1792 3.2082L32.1724 3.16418L32.1792 3.2082C31.6184 3.29428 31.1315 3.39472 30.7325 3.48095L30.7312 3.48124L30.7312 3.48122C30.3514 3.55225 30.0961 3.67897 29.9729 3.79876M34.0351 3.15878C33.3696 3.02932 32.7336 3.07247 32.1716 3.15878C31.6094 3.24508 31.1213 3.34576 30.722 3.43207C30.3374 3.50399 30.0712 3.63345 29.938 3.7629M29.938 3.7629L29.9729 3.79873C29.9729 3.79874 29.9729 3.79875 29.9729 3.79876M29.938 3.7629C29.8669 3.83217 29.8296 3.89732 29.8035 3.94293C29.7808 3.98256 29.7666 4.00743 29.7459 4.00743C29.7163 4.00743 29.6719 3.87798 29.7903 3.66221C29.8494 3.56153 29.953 3.44646 30.1008 3.36015M29.938 3.7629L29.9729 3.79876M29.9729 3.79876C29.9113 3.85869 29.8771 3.91514 29.8521 3.95865C29.8505 3.96151 29.8488 3.96441 29.8471 3.96733C29.8369 3.98526 29.8263 4.0038 29.8158 4.01763C29.804 4.03317 29.7818 4.05743 29.7459 4.05743C29.7235 4.05743 29.7074 4.04542 29.6984 4.03612C29.689 4.02634 29.6824 4.01454 29.6776 4.00309C29.6679 3.97992 29.6626 3.95008 29.6626 3.91573C29.6626 3.84636 29.6841 3.75184 29.7465 3.63816L29.7472 3.63691L29.7472 3.63692C29.8102 3.52946 29.9194 3.40854 30.0741 3.31785M30.0741 3.31785C30.0736 3.31817 30.0731 3.3185 30.0726 3.31882L30.1008 3.36015M30.0741 3.31785C30.0746 3.31756 30.0751 3.31727 30.0755 3.31698L30.1008 3.36015M30.0741 3.31785C30.2272 3.21391 30.4095 3.14044 30.601 3.0688L30.6031 3.06801L30.6031 3.06806C30.6313 3.05891 30.6599 3.04962 30.6889 3.04019C31.0698 2.91638 31.5185 2.77055 32.057 2.6497L32.0679 2.69847L32.057 2.6497C32.637 2.51956 33.3531 2.41773 34.1449 2.51944L34.1459 2.51957V2.51958C34.5349 2.57776 34.9543 2.69421 35.3591 2.89837L35.3597 2.89871C35.5553 3.00103 35.7505 3.13252 35.931 3.29327C35.9917 3.34251 36.0474 3.39993 36.1028 3.457C36.1301 3.48511 36.1573 3.51314 36.185 3.54007L36.1883 3.54323L36.1881 3.54337C36.2054 3.56348 36.2241 3.58431 36.2436 3.60588C36.3024 3.67106 36.3672 3.74295 36.4138 3.82182M30.1008 3.36015C30.2487 3.25946 30.4263 3.18754 30.6185 3.11563C30.6467 3.10649 30.6752 3.09721 30.7041 3.08781C31.0852 2.96398 31.5318 2.8188 32.0679 2.69848C32.6449 2.56903 33.3547 2.46834 34.1385 2.56903L35.3366 2.94301C35.529 3.0437 35.7211 3.17316 35.8986 3.33138C35.9574 3.37897 36.0097 3.43285 36.064 3.48886C36.0918 3.51751 36.1201 3.54671 36.1502 3.57591C36.1691 3.59805 36.1891 3.62018 36.2093 3.64256C36.2677 3.70743 36.328 3.77434 36.3719 3.84921M36.4138 3.82182C36.4133 3.82118 36.4128 3.82053 36.4124 3.81989L36.3719 3.84921M36.4138 3.82182C36.4142 3.82253 36.4146 3.82323 36.415 3.82394L36.3719 3.84921M36.4138 3.82182C36.9835 4.61007 37.2067 5.64372 37.0724 6.67493L37.0228 6.66848M36.3719 3.84921C36.9341 4.62595 37.1558 5.64723 37.0228 6.66848M37.0228 6.66848L37.0724 6.67494C36.9378 7.70745 36.4447 8.70857 35.73 9.56295C35.0151 10.4175 34.0776 11.1265 33.0367 11.6327M37.0228 6.66848C36.8897 7.68973 36.4016 8.68224 35.6916 9.53086C34.9817 10.3796 34.0499 11.0844 33.0146 11.5878M33.0367 11.6327L21.8034 14.2201C22.6929 14.0417 23.6903 13.8689 24.7747 13.6811C25.4394 13.5659 26.1367 13.4451 26.8617 13.3139C27.0734 13.2727 27.2873 13.2322 27.5031 13.1914C28.2675 13.0467 29.0568 12.8972 29.8643 12.6954C30.8996 12.4365 31.9792 12.1056 33.0146 11.5878M33.0367 11.6327C33.0366 11.6327 33.0365 11.6328 33.0364 11.6328L33.0146 11.5878M33.0367 11.6327C33.0367 11.6326 33.0368 11.6326 33.0369 11.6326L33.0146 11.5878M33.0367 11.6327C31.9967 12.1527 30.9133 12.4846 29.8765 12.7439C29.0674 12.9461 28.2762 13.0959 27.5116 13.2407C27.296 13.2815 27.0825 13.3219 26.8713 13.363L26.8706 13.3631C26.1446 13.4945 25.4469 13.6153 24.7822 13.7305C23.6984 13.9183 22.7022 14.0909 21.8132 14.2691L21.8125 14.2692C20.3795 14.5351 19.2382 14.8188 18.4493 15.0219C18.3492 15.0476 18.2548 15.0721 18.1661 15.095C17.9053 15.1626 17.6941 15.2173 17.5364 15.2538C17.431 15.2783 17.3473 15.2951 17.288 15.302C17.2587 15.3054 17.2322 15.3068 17.2109 15.3043C17.2002 15.3031 17.1879 15.3007 17.1762 15.2951C17.1646 15.2895 17.1509 15.2793 17.1433 15.2618M33.0367 11.6327L17.1433 15.2618" fill="white" stroke="white" stroke-width="0.1"/>
<path d="M53.2701 17.5V9.22H55.3341L57.6621 14.188L59.9901 9.22H62.0541V17.5H60.3261V12.268L58.3821 16.42H56.9421L54.9981 12.268V17.5H53.2701ZM63.6679 10.78V9.22H69.3559V11.8L66.3679 17.5H64.8199L64.6159 17.14L67.6279 11.44V10.78H63.6679ZM70.9654 17.5V9.22H74.1094C76.3654 9.22 77.4934 10.348 77.4934 12.604V14.116C77.4934 16.372 76.3654 17.5 74.1094 17.5H70.9654ZM72.6934 15.94H74.2054C75.2454 15.94 75.7654 15.42 75.7654 14.38V12.34C75.7654 11.3 75.2454 10.78 74.2054 10.78H72.6934V15.94ZM81.75 16.876V15.94H85.47C85.71 15.94 85.83 15.82 85.83 15.58V14.716C85.83 14.484 85.73 14.352 85.53 14.32L83.19 13.84C82.23 13.648 81.75 13.004 81.75 11.908V11.236C81.75 9.892 82.422 9.22 83.766 9.22H86.514L87.318 9.844V10.78H83.838C83.598 10.78 83.478 10.9 83.478 11.14V11.92C83.478 12.144 83.578 12.276 83.778 12.316L86.118 12.784C87.078 12.976 87.558 13.62 87.558 14.716V15.484C87.558 16.828 86.886 17.5 85.542 17.5H82.554L81.75 16.876ZM88.4687 10.78V9.22H95.2367V10.78H92.7167V17.5H90.9887V10.78H88.4687ZM96.4403 15.484V9.22H98.1683V15.58C98.1683 15.82 98.2883 15.94 98.5283 15.94H100.88C101.12 15.94 101.24 15.82 101.24 15.58V9.22H102.968V15.484C102.968 16.828 102.296 17.5 100.952 17.5H98.4563C97.1123 17.5 96.4403 16.828 96.4403 15.484ZM104.868 17.5V9.22H108.012C110.268 9.22 111.396 10.348 111.396 12.604V14.116C111.396 16.372 110.268 17.5 108.012 17.5H104.868ZM106.596 15.94H108.108C109.148 15.94 109.668 15.42 109.668 14.38V12.34C109.668 11.3 109.148 10.78 108.108 10.78H106.596V15.94ZM113.13 17.5V9.22H114.858V17.5H113.13ZM116.701 15.484V11.236C116.701 9.892 117.373 9.22 118.717 9.22H121.453C122.797 9.22 123.469 9.892 123.469 11.236V15.484C123.469 16.828 122.797 17.5 121.453 17.5H118.717C117.373 17.5 116.701 16.828 116.701 15.484ZM118.429 15.58C118.429 15.82 118.549 15.94 118.789 15.94H121.381C121.621 15.94 121.741 15.82 121.741 15.58V11.14C121.741 10.9 121.621 10.78 121.381 10.78H118.789C118.549 10.78 118.429 10.9 118.429 11.14V15.58ZM124.957 16.876V15.94H128.677C128.917 15.94 129.037 15.82 129.037 15.58V14.716C129.037 14.484 128.937 14.352 128.737 14.32L126.397 13.84C125.437 13.648 124.957 13.004 124.957 11.908V11.236C124.957 9.892 125.629 9.22 126.973 9.22H129.721L130.525 9.844V10.78H127.045C126.805 10.78 126.685 10.9 126.685 11.14V11.92C126.685 12.144 126.785 12.276 126.985 12.316L129.325 12.784C130.285 12.976 130.765 13.62 130.765 14.716V15.484C130.765 16.828 130.093 17.5 128.749 17.5H125.761L124.957 16.876Z" fill="white"/>
</svg>
