<svg width="138" height="28" viewBox="0 0 138 28" fill="none" xmlns="http://www.w3.org/2000/svg">
<rect width="138" height="28" fill="black"/>
<path d="M9.90248 25.4719C9.75839 25.4719 9.63593 25.4223 9.53507 25.323C9.43422 25.2237 9.38379 25.1033 9.38379 24.9614H12.7682C12.8374 24.9614 12.8979 24.9358 12.9497 24.8849C13.0016 24.8367 13.0276 24.777 13.0276 24.7062V24.1915C13.0276 24.1205 13.0016 24.0609 12.9497 24.0128C12.8979 23.9618 12.8374 23.9362 12.7682 23.9362H9.90248C9.75839 23.9362 9.63593 23.8867 9.53507 23.7874C9.43422 23.6852 9.38379 23.5647 9.38379 23.4258V22.911H9.90248V23.1663C9.90248 23.2372 9.92841 23.2982 9.98029 23.3493C10.0293 23.4002 10.0898 23.4258 10.1618 23.4258H13.0276C13.1716 23.4258 13.2941 23.4755 13.395 23.5746C13.4958 23.6739 13.5462 23.7943 13.5462 23.9362V24.9614C13.5462 25.1033 13.4958 25.2237 13.395 25.323C13.2941 25.4223 13.1716 25.4719 13.0276 25.4719H9.90248ZM9.38379 22.4007C9.38379 22.2588 9.43422 22.1384 9.53507 22.0391C9.63593 21.937 9.75839 21.8859 9.90248 21.8859H13.0276C13.1716 21.8859 13.2941 21.937 13.395 22.0391C13.4958 22.1384 13.5462 22.2588 13.5462 22.4007H9.38379ZM14.588 25.4719C14.4439 25.4719 14.3214 25.4223 14.2205 25.323C14.1197 25.2237 14.0693 25.1033 14.0693 24.9614V19.3251H14.588V21.116C14.588 21.1869 14.6139 21.2478 14.6658 21.2989C14.7147 21.35 14.7753 21.3755 14.8473 21.3755H15.3703V21.8859H14.8473C14.7753 21.8859 14.7147 21.9114 14.6658 21.9626C14.6139 22.0135 14.588 22.0731 14.588 22.141V24.7062C14.588 24.777 14.6139 24.8367 14.6658 24.8849C14.7147 24.9358 14.7753 24.9614 14.8473 24.9614H15.6296C15.6296 25.1033 15.5792 25.2237 15.4784 25.323C15.3746 25.4223 15.2507 25.4719 15.1066 25.4719H14.588ZM16.6713 25.4719C16.5273 25.4719 16.4048 25.4223 16.3039 25.323C16.2031 25.2237 16.1527 25.1033 16.1527 24.9614V22.4007C16.1527 22.2588 16.2031 22.1384 16.3039 22.0391C16.4048 21.937 16.5273 21.8859 16.6713 21.8859V24.7062C16.6713 24.777 16.6973 24.8367 16.7492 24.8849C16.7982 24.9358 16.8586 24.9614 16.9306 24.9614H19.0141C19.0861 24.9614 19.1481 24.9358 19.1999 24.8849C19.2489 24.8367 19.2734 24.777 19.2734 24.7062V21.8859C19.4175 21.8859 19.5399 21.937 19.6408 22.0391C19.7446 22.1384 19.7964 22.2588 19.7964 22.4007V24.9614C19.7964 25.1033 19.7446 25.2237 19.6408 25.323C19.5399 25.4223 19.4175 25.4719 19.2734 25.4719H16.6713ZM23.7038 24.9614C23.773 24.9614 23.8335 24.9358 23.8854 24.8849C23.9373 24.8367 23.9632 24.777 23.9632 24.7062V22.6558C23.9632 22.585 23.9373 22.524 23.8854 22.4729C23.8335 22.4246 23.773 22.4007 23.7038 22.4007H21.0975C21.0254 22.4007 20.9649 22.4246 20.9159 22.4729C20.864 22.524 20.8381 22.585 20.8381 22.6558V24.7062C20.8381 24.777 20.864 24.8367 20.9159 24.8849C20.9649 24.9358 21.0254 24.9614 21.0975 24.9614H23.7038ZM20.8381 25.4719C20.694 25.4719 20.5716 25.4223 20.4707 25.323C20.3699 25.2237 20.3194 25.1033 20.3194 24.9614V22.4007C20.3194 22.2588 20.3699 22.1384 20.4707 22.0391C20.5716 21.937 20.694 21.8859 20.8381 21.8859H23.7038C23.773 21.8859 23.8335 21.8618 23.8854 21.8136C23.9373 21.7626 23.9632 21.7016 23.9632 21.6307V19.3251H24.4819V24.9614C24.4819 25.1033 24.4314 25.2237 24.3306 25.323C24.2297 25.4223 24.1073 25.4719 23.9632 25.4719H20.8381ZM25.5235 25.4719C25.3795 25.4719 25.257 25.4223 25.1562 25.323C25.0553 25.2237 25.0049 25.1033 25.0049 24.9614V21.8859H25.5235V25.4719ZM25.0049 20.8608V19.8356H25.5235V20.8608H25.0049ZM29.4268 24.9614C29.4958 24.9614 29.5565 24.9358 29.6082 24.8849C29.6601 24.8367 29.6861 24.777 29.6861 24.7062V22.6558C29.6861 22.585 29.6601 22.524 29.6082 22.4729C29.5565 22.4246 29.4958 22.4007 29.4268 22.4007H26.8203C26.7483 22.4007 26.6877 22.4246 26.6388 22.4729C26.5869 22.524 26.561 22.585 26.561 22.6558V24.7062C26.561 24.777 26.5869 24.8367 26.6388 24.8849C26.6877 24.9358 26.7483 24.9614 26.8203 24.9614H29.4268ZM26.561 25.4719C26.4169 25.4719 26.2944 25.4223 26.1935 25.323C26.0927 25.2237 26.0423 25.1033 26.0423 24.9614V22.4007C26.0423 22.2588 26.0927 22.1384 26.1935 22.0391C26.2944 21.937 26.4169 21.8859 26.561 21.8859H29.6861C29.83 21.8859 29.9526 21.937 30.0535 22.0391C30.1542 22.1384 30.2048 22.2588 30.2048 22.4007V24.9614C30.2048 25.1033 30.1542 25.2237 30.0535 25.323C29.9526 25.4223 29.83 25.4719 29.6861 25.4719H26.561ZM31.2464 25.4719C31.1025 25.4719 30.9799 25.4223 30.879 25.323C30.7782 25.2237 30.7277 25.1033 30.7277 24.9614H34.1122C34.1812 24.9614 34.2418 24.9358 34.2938 24.8849C34.3455 24.8367 34.3714 24.777 34.3714 24.7062V24.1915C34.3714 24.1205 34.3455 24.0609 34.2938 24.0128C34.2418 23.9618 34.1812 23.9362 34.1122 23.9362H31.2464C31.1025 23.9362 30.9799 23.8867 30.879 23.7874C30.7782 23.6852 30.7277 23.5647 30.7277 23.4258V22.4007C30.7277 22.2588 30.7782 22.1384 30.879 22.0391C30.9799 21.937 31.1025 21.8859 31.2464 21.8859H34.3714C34.5157 21.8859 34.638 21.937 34.7389 22.0391C34.8398 22.1384 34.8902 22.2588 34.8902 22.4007H31.5057C31.4337 22.4007 31.3733 22.4246 31.3243 22.4729C31.2724 22.524 31.2464 22.585 31.2464 22.6558V23.1663C31.2464 23.2372 31.2724 23.2982 31.3243 23.3493C31.3733 23.4002 31.4337 23.4258 31.5057 23.4258H34.3714C34.5157 23.4258 34.638 23.4755 34.7389 23.5746C34.8398 23.6739 34.8902 23.7943 34.8902 23.9362V24.9614C34.8902 25.1033 34.8398 25.2237 34.7389 25.323C34.638 25.4223 34.5157 25.4719 34.3714 25.4719H31.2464Z" fill="white"/>
<path d="M10.6813 6.2226C10.7996 6.2226 10.8883 7.01368 10.8291 8.29389C10.77 9.5597 10.5481 11.3146 10.06 13.1988C9.82341 14.1481 9.52759 15.0256 9.26137 15.8167C8.98034 16.6078 8.7437 17.3126 8.53664 17.9024C8.1373 19.0819 7.93023 19.8299 7.79712 19.8154C7.6788 19.8011 7.664 18.9956 7.91544 17.7442C8.03376 17.1113 8.22604 16.3777 8.46268 15.5866C8.68454 14.7811 8.95077 13.9181 9.18741 12.9975C10.1488 9.31514 10.415 6.2226 10.6813 6.2226Z" fill="white"/>
<path d="M12.8848 12.8249C12.796 12.8968 12.4411 12.6667 12.0121 12.1633C11.7903 11.9187 11.5684 11.5879 11.3466 11.2139C11.1395 10.8399 10.9325 10.394 10.7698 9.91933C10.6071 9.44468 10.5035 8.97003 10.4444 8.53844C10.3852 8.10693 10.3704 7.71855 10.3852 7.38771C10.4148 6.72611 10.5627 6.33773 10.681 6.35213C10.9325 6.36647 11.0064 7.90557 11.6128 9.64604C12.2044 11.3865 13.0918 12.6667 12.8848 12.8249Z" fill="white"/>
<path d="M15.266 3.79168C15.4878 3.92114 14.5709 5.77666 13.8018 8.1788C13.0327 10.5809 12.7073 12.6234 12.4558 12.6091C12.3375 12.5947 12.2636 12.0625 12.3079 11.2138C12.3375 10.7823 12.3967 10.2789 12.5002 9.71791C12.6038 9.15691 12.7517 8.55278 12.9588 7.93431C13.1658 7.31577 13.3877 6.72604 13.6242 6.20818C13.8609 5.69039 14.1123 5.24447 14.3342 4.87049C14.7927 4.1369 15.1625 3.73415 15.266 3.79168Z" fill="white"/>
<path d="M15.7984 18.7799C15.6801 18.7943 15.4286 18.0319 15.192 16.7661C15.0737 16.1333 14.9702 15.3709 14.8962 14.5223C14.8223 13.6736 14.7631 12.7386 14.7483 11.7605C14.7187 9.80429 14.8223 8.03509 14.9405 6.76928C15.0589 5.48907 15.2068 4.71234 15.3251 4.71234C15.4434 4.71234 15.5322 5.50347 15.5617 6.78361C15.6061 8.06382 15.6061 9.81869 15.6357 11.7461C15.6505 12.7099 15.6801 13.6305 15.7096 14.4647C15.7393 15.299 15.7836 16.0469 15.8132 16.6799C15.8871 17.9744 15.9167 18.7656 15.7984 18.7799Z" fill="white"/>
<path d="M26.4474 3.2163C26.5066 3.44644 24.4803 4.16564 22.0399 5.11498C21.4335 5.35952 20.8419 5.57528 20.3242 5.79104C19.8066 6.0068 19.3481 6.20815 18.9783 6.40958C18.224 6.78355 17.7951 7.08558 17.6915 6.99931C17.6028 6.92737 17.9134 6.43831 18.6382 5.89172C18.9931 5.61842 19.4516 5.33072 19.984 5.07183C20.5165 4.81292 21.0933 4.554 21.7145 4.30948C24.2141 3.33136 26.3883 2.98615 26.4474 3.2163Z" fill="white"/>
<path d="M23.1646 18.1468C23.0462 18.1468 22.9723 17.2838 23.0462 15.9029C23.0758 15.2125 23.1497 14.3926 23.2681 13.4865C23.3864 12.5802 23.5491 11.5878 23.7709 10.5665C23.9928 9.53081 24.259 8.5671 24.5252 7.68967C24.7915 6.81224 25.0725 6.03548 25.324 5.40261C25.8416 4.12244 26.2557 3.36008 26.3593 3.40323C26.5959 3.48954 25.5014 6.69716 24.6436 10.7535C23.7414 14.8097 23.416 18.1612 23.1646 18.1468Z" fill="white"/>
<path d="M29.4063 15.6298C29.1549 15.601 29.2584 12.9255 29.4803 9.64595C29.7022 6.36638 29.9831 3.70538 30.2197 3.70538C30.4564 3.70538 30.5896 6.39519 30.3677 9.70349C30.131 13.0119 29.643 15.6585 29.4063 15.6298Z" fill="white"/>
<path d="M17.1889 15.2413C17.1741 15.2126 17.2776 15.1406 17.4699 15.04C17.5586 14.9824 17.6917 14.9249 17.8248 14.8674C17.9728 14.8099 18.1355 14.7379 18.3278 14.6516C19.0968 14.3351 20.2209 13.9612 21.6556 13.6016C23.0754 13.242 24.8059 12.8967 26.6991 12.5228C27.6457 12.3358 28.6366 12.1344 29.6424 11.8755C30.648 11.6166 31.6538 11.3001 32.6152 10.8111C33.5618 10.3364 34.39 9.71789 35.0259 8.96994C35.6621 8.23632 36.091 7.38769 36.2242 6.539C36.3571 5.69037 36.1945 4.84169 35.7804 4.23758C35.7359 4.15127 35.6769 4.09374 35.6177 4.02181C35.5585 3.96428 35.4993 3.89236 35.4255 3.83482C35.2923 3.70536 35.1592 3.60468 34.9964 3.51838C34.6858 3.34576 34.3604 3.23069 34.0351 3.15878C33.3696 3.02932 32.7336 3.07247 32.1716 3.15878C31.6094 3.24508 31.1213 3.34576 30.722 3.43207C30.3374 3.50399 30.0712 3.63345 29.938 3.7629C29.8051 3.89236 29.7903 4.00743 29.7459 4.00743C29.7163 4.00743 29.6719 3.87798 29.7903 3.66221C29.8494 3.56153 29.953 3.44646 30.1008 3.36015C30.2487 3.25946 30.4263 3.18754 30.6185 3.11563C31.0179 2.98616 31.4911 2.82794 32.0679 2.69848C32.6449 2.56903 33.3547 2.46834 34.1385 2.56903C34.5231 2.62656 34.9373 2.74164 35.3366 2.94301C35.529 3.0437 35.7211 3.17316 35.8986 3.33138C35.9875 3.4033 36.0614 3.48961 36.1502 3.57591C36.2242 3.66221 36.3129 3.74852 36.3719 3.84921C36.9341 4.62595 37.1558 5.64723 37.0228 6.66848C36.8897 7.68973 36.4016 8.68224 35.6916 9.53086C34.9817 10.3796 34.0499 11.0844 33.0146 11.5878C31.9792 12.1056 30.8996 12.4365 29.8643 12.6954C28.8288 12.9542 27.8232 13.1269 26.8617 13.3139C24.9538 13.6591 23.2381 13.9324 21.8034 14.2201C18.9341 14.7523 17.2332 15.3564 17.1889 15.2413Z" fill="white"/>
<path d="M53.2701 17.5V9.22H55.3341L57.6621 14.188L59.9901 9.22H62.0541V17.5H60.3261V12.268L58.3821 16.42H56.9421L54.9981 12.268V17.5H53.2701ZM63.6679 10.78V9.22H69.3559V11.8L66.3679 17.5H64.8199L64.6159 17.14L67.6279 11.44V10.78H63.6679ZM70.9654 17.5V9.22H74.1094C76.3654 9.22 77.4934 10.348 77.4934 12.604V14.116C77.4934 16.372 76.3654 17.5 74.1094 17.5H70.9654ZM72.6934 15.94H74.2054C75.2454 15.94 75.7654 15.42 75.7654 14.38V12.34C75.7654 11.3 75.2454 10.78 74.2054 10.78H72.6934V15.94ZM81.75 16.876V15.94H85.47C85.71 15.94 85.83 15.82 85.83 15.58V14.716C85.83 14.484 85.73 14.352 85.53 14.32L83.19 13.84C82.23 13.648 81.75 13.004 81.75 11.908V11.236C81.75 9.892 82.422 9.22 83.766 9.22H86.514L87.318 9.844V10.78H83.838C83.598 10.78 83.478 10.9 83.478 11.14V11.92C83.478 12.144 83.578 12.276 83.778 12.316L86.118 12.784C87.078 12.976 87.558 13.62 87.558 14.716V15.484C87.558 16.828 86.886 17.5 85.542 17.5H82.554L81.75 16.876ZM88.4687 10.78V9.22H95.2367V10.78H92.7167V17.5H90.9887V10.78H88.4687ZM96.4403 15.484V9.22H98.1683V15.58C98.1683 15.82 98.2883 15.94 98.5283 15.94H100.88C101.12 15.94 101.24 15.82 101.24 15.58V9.22H102.968V15.484C102.968 16.828 102.296 17.5 100.952 17.5H98.4563C97.1123 17.5 96.4403 16.828 96.4403 15.484ZM104.868 17.5V9.22H108.012C110.268 9.22 111.396 10.348 111.396 12.604V14.116C111.396 16.372 110.268 17.5 108.012 17.5H104.868ZM106.596 15.94H108.108C109.148 15.94 109.668 15.42 109.668 14.38V12.34C109.668 11.3 109.148 10.78 108.108 10.78H106.596V15.94ZM113.13 17.5V9.22H114.858V17.5H113.13ZM116.701 15.484V11.236C116.701 9.892 117.373 9.22 118.717 9.22H121.453C122.797 9.22 123.469 9.892 123.469 11.236V15.484C123.469 16.828 122.797 17.5 121.453 17.5H118.717C117.373 17.5 116.701 16.828 116.701 15.484ZM118.429 15.58C118.429 15.82 118.549 15.94 118.789 15.94H121.381C121.621 15.94 121.741 15.82 121.741 15.58V11.14C121.741 10.9 121.621 10.78 121.381 10.78H118.789C118.549 10.78 118.429 10.9 118.429 11.14V15.58ZM124.957 16.876V15.94H128.677C128.917 15.94 129.037 15.82 129.037 15.58V14.716C129.037 14.484 128.937 14.352 128.737 14.32L126.397 13.84C125.437 13.648 124.957 13.004 124.957 11.908V11.236C124.957 9.892 125.629 9.22 126.973 9.22H129.721L130.525 9.844V10.78H127.045C126.805 10.78 126.685 10.9 126.685 11.14V11.92C126.685 12.144 126.785 12.276 126.985 12.316L129.325 12.784C130.285 12.976 130.765 13.62 130.765 14.716V15.484C130.765 16.828 130.093 17.5 128.749 17.5H125.761L124.957 16.876Z" fill="white"/>
</svg>
